<svg version="1.1" xmlns="http://www.w3.org/2000/svg" viewBox="-275.4559986114502 -1694.2080642700196 5140.4939713994845 2835.456106567383"><desc>Created with Snap</desc><defs></defs><g><g transform="matrix(27.7634,0,0,27.7634,2045.8496,-1659.214)"><g><path fill="#cbce91" d="M50.479,58.526C28.875,100.23,72.083,100.23,50.479,58.526L50.479,58.526z" style=""></path><path fill="#cbce91" d="M41.758,49.805C0.052,28.201,0.052,71.409,41.758,49.805L41.758,49.805z" style=""></path><path fill="#cbce91" d="M59.199,49.805C100.905,71.409,100.905,28.201,59.199,49.805L59.199,49.805z" style=""></path><path fill="#cbce91" d="M50.479,41.084C72.083-0.622,28.875-0.622,50.479,41.084L50.479,41.084z" style=""></path><path fill="#cbce91" d="M56.534,48.368c5.733-8.565,13.839-18.456,25.061-29.677C70.373,29.912,60.481,38.017,51.917,43.75   c-0.51-0.907-0.986-1.795-1.438-2.666c-0.45,0.871-0.928,1.759-1.437,2.666c-8.566-5.733-18.457-13.838-29.678-25.059   c11.221,11.221,19.327,21.112,25.06,29.677c-0.907,0.509-1.794,0.986-2.665,1.437c0.871,0.451,1.759,0.929,2.666,1.437   c-5.733,8.565-13.838,18.457-25.06,29.679C30.585,69.699,40.476,61.594,49.042,55.86c0.509,0.907,0.986,1.795,1.437,2.666   c0.452-0.871,0.929-1.759,1.438-2.666c8.564,5.733,18.456,13.839,29.678,25.061C70.373,69.699,62.268,59.808,56.534,51.242   c0.907-0.508,1.795-0.986,2.665-1.437C58.329,49.354,57.441,48.877,56.534,48.368z" style=""></path></g><desc>Created with Snap</desc><defs></defs></g><g><g transform="matrix(1.024,0,0,-1.024,0,0)"><path d="M306 752Q315 752 327 751Q339 750 352 748Q365 747 377 744Q389 742 398 739Q395 706 389 677Q384 649 376 626L351 626L307 712Q278 712 257 706Q237 700 223 683Q210 666 203 634Q197 602 197 550L197 500L312 500L312 450L197 450L197 49Q249 43 293 25L293 0L41 0L41 25Q72 43 107 49L107 450L31 450L31 476Q66 498 107 509L107 544Q107 606 122 646Q137 687 164 710Q191 734 227 743Q264 752 306 752ZM605 25L605 0L383 0L383 25Q398 33 414 38Q430 44 449 49L449 442L383 450L383 476Q412 488 446 497Q480 506 514 512L539 512L539 49Q559 44 575 38Q591 33 605 25ZM430 670Q430 697 447 713Q465 729 494 729Q523 729 540 713Q557 697 557 670Q557 643 540 627Q523 612 494 612Q465 612 447 627Q430 643 430 670ZM906 25L906 0L684 0L684 25Q717 41 750 49L750 682L674 690L674 716Q700 728 739 737Q778 746 815 752L840 752L840 49Q873 41 906 25ZM1191 512Q1245 512 1282 501Q1319 491 1344 469Q1403 509 1467 527Q1475 516 1478 500Q1482 484 1482 470L1469 446L1364 446Q1389 410 1389 351Q1389 279 1338 234Q1288 189 1191 189Q1172 189 1160 190Q1148 191 1133 193Q1128 184 1121 173Q1115 162 1115 150Q1115 130 1138 118Q1161 107 1195 98Q1230 89 1270 79Q1311 70 1346 53Q1381 37 1404 10Q1428 -16 1429 -58Q1430 -94 1412 -123Q1395 -152 1364 -172Q1333 -191 1289 -202Q1246 -212 1194 -212Q1085 -212 1029 -175Q974 -138 974 -82Q974 -55 982 -35Q991 -15 1007 0Q1023 15 1047 26Q1071 38 1102 48Q1080 58 1065 75Q1051 93 1051 118Q1051 141 1070 163Q1090 186 1110 199Q1053 214 1022 256Q992 298 992 351Q992 385 1005 414Q1018 444 1043 466Q1068 488 1105 500Q1142 512 1191 512ZM1339 -81Q1339 -49 1317 -30Q1296 -11 1264 1Q1232 13 1195 21Q1158 29 1126 39Q1088 16 1076 -10Q1064 -35 1064 -62Q1064 -115 1102 -142Q1140 -168 1212 -168Q1249 -168 1273 -161Q1298 -154 1312 -143Q1327 -131 1333 -115Q1339 -99 1339 -81ZM1082 351Q1082 327 1087 305Q1093 284 1105 268Q1118 252 1139 242Q1160 233 1191 233Q1249 233 1274 267Q1299 301 1299 351Q1299 405 1274 436Q1250 468 1191 468Q1130 468 1106 437Q1082 407 1082 351ZM1511 250Q1511 313 1527 361Q1544 410 1575 443Q1606 477 1649 494Q1693 512 1746 512Q1808 512 1853 493Q1898 474 1926 439Q1955 405 1968 357Q1982 309 1982 250Q1982 124 1918 56Q1854 -12 1746 -12Q1686 -12 1642 6Q1598 25 1569 59Q1540 94 1525 142Q1511 191 1511 250ZM1607 250Q1607 205 1615 165Q1624 125 1642 95Q1661 66 1691 49Q1721 32 1763 32Q1817 32 1851 85Q1886 138 1886 250Q1886 296 1877 335Q1869 375 1851 404Q1833 434 1805 451Q1777 468 1738 468Q1679 468 1643 415Q1607 362 1607 250Z" fill="#76528b" style=""></path></g></g></g></svg>