<?xml version="1.0" encoding="UTF-8"?> <svg xmlns="http://www.w3.org/2000/svg" xmlns:xlink="http://www.w3.org/1999/xlink" width="42px" height="48px" viewBox="0 0 42 48" version="1.1"><!-- Generator: Sketch 61.2 (89653) - https://sketch.com --><title>menu</title><desc>Created with Sketch.</desc><g id="Finals" stroke="none" stroke-width="1" fill="none" fill-rule="evenodd"><g id="Visit-Us" transform="translate(-984.000000, -2456.000000)" fill="#5D4D45" fill-rule="nonzero"><g id="menu" transform="translate(984.000000, 2456.000000)"><path d="M18.89025,46.4999063 L1.59365625,46.4999063 L1.59365625,11.9999063 L26.3436562,11.9999063 L26.3436562,34.4999063 C26.3436562,34.9140937 26.6794687,35.2499063 27.0936563,35.2499063 C27.5078437,35.2499063 27.8436562,34.9140937 27.8436562,34.4999063 L27.8436562,11.2499063 C27.8436562,10.8357188 27.5078437,10.4999063 27.0936563,10.4999063 L24.0936563,10.4999063 L24.0936563,0.74990625 C24.0935625,0.33571875 23.75775,-1.96246166e-08 23.3435625,-1.96246166e-08 C23.2339688,-1.96246166e-08 23.1256875,0.024 23.0264063,0.07040625 L0.52640625,10.5704063 C0.44775,10.6078125 0.37621875,10.6585313 0.31490625,10.7204063 C0.30890625,10.7264063 0.30590625,10.7354063 0.29990625,10.7421563 C0.244125,10.801125 0.19828125,10.8687187 0.16415625,10.9424062 C0.1543125,10.9701563 0.1460625,10.9984688 0.13940625,11.0271563 C0.1190625,11.0865 0.10640625,11.1482813 0.10190625,11.2109062 C0.10190625,11.2251562 0.09365625,11.2379062 0.09365625,11.2521562 L0.09365625,47.2499063 C0.09365625,47.6640937 0.42946875,47.9999063 0.84365625,47.9999063 L18.8901563,47.9999063 C19.3043438,47.9999063 19.6401563,47.6640937 19.6401563,47.2499063 C19.6401563,46.8357187 19.3044375,46.4999063 18.89025,46.4999063 Z M22.5936562,1.92740625 L22.5936562,10.4999063 L4.224,10.4999063 L22.5936562,1.92740625 Z" id="Shape"></path><path d="M19.5936563,29.9999062 C20.0078437,29.9999062 20.3436563,29.6640937 20.3436563,29.2499062 L20.3436563,17.2499062 C20.3436563,16.8357187 20.0078437,16.4999062 19.5936563,16.4999062 L7.59365625,16.4999062 C7.17946875,16.4999062 6.84365625,16.8357187 6.84365625,17.2499062 L6.84365625,29.2499062 C6.84365625,29.6640937 7.17946875,29.9999062 7.59365625,29.9999062 L19.5936563,29.9999062 Z M8.34365625,17.9999062 L18.8436563,17.9999062 L18.8436563,28.4999062 L8.34365625,28.4999062 L8.34365625,17.9999062 Z" id="Shape"></path><path d="M21.8436563,32.2499063 L5.34365625,32.2499063 C4.92946875,32.2499063 4.59365625,32.5857187 4.59365625,32.9999063 C4.59365625,33.4140938 4.92946875,33.7499063 5.34365625,33.7499063 L21.8436563,33.7499063 C22.2578438,33.7499063 22.5936563,33.4140938 22.5936563,32.9999063 C22.5936563,32.5857187 22.2579375,32.2499063 21.8436563,32.2499063 Z" id="Shape"></path><path d="M21.8436563,35.9999063 L5.34365625,35.9999063 C4.92946875,35.9999063 4.59365625,36.3357187 4.59365625,36.7499063 C4.59365625,37.1640938 4.92946875,37.4999063 5.34365625,37.4999063 L21.8436563,37.4999063 C22.2578438,37.4999063 22.5936563,37.1640938 22.5936563,36.7499063 C22.5936563,36.3357187 22.2579375,35.9999063 21.8436563,35.9999063 Z" id="Shape"></path><path d="M40.5936562,44.9999063 C41.0078437,44.9999063 41.3436562,44.6640938 41.3436562,44.2499063 L41.3436562,43.3911563 C41.3391563,39.724875 38.3679375,36.7540313 34.7016562,36.7499063 L32.3436562,36.7499063 L32.3436562,35.2499063 C32.3436562,34.8357188 32.0078437,34.4999063 31.5936562,34.4999063 C31.1794687,34.4999063 30.8436562,34.8357188 30.8436562,35.2499063 L30.8436562,36.7499063 L28.4856562,36.7499063 C24.819375,36.7540313 21.84825,39.724875 21.8436562,43.3911563 L21.8436562,44.2499063 C21.8436562,44.6640938 22.1794687,44.9999063 22.5936562,44.9999063 L24.8436562,44.9999063 L24.8436562,46.4999063 L22.5936562,46.4999063 C22.1794687,46.4999063 21.8436562,46.8357188 21.8436562,47.2499063 C21.8436562,47.6640938 22.1794687,47.9999063 22.5936562,47.9999063 L40.5936562,47.9999063 C41.0078437,47.9999063 41.3436562,47.6640938 41.3436562,47.2499063 C41.3436562,46.8357188 41.0078437,46.4999063 40.5936562,46.4999063 L38.3436562,46.4999063 L38.3436562,44.9999063 L40.5936562,44.9999063 L40.5936562,44.9999063 Z M36.8436562,46.4999063 L26.3436562,46.4999063 L26.3436562,44.9999063 L36.8436562,44.9999063 L36.8436562,46.4999063 Z M23.3436562,43.4999063 L23.3436562,43.3911563 C23.3469375,40.5527813 25.6472812,38.2528125 28.4856563,38.2499063 L34.7016563,38.2499063 C37.5400313,38.2528125 39.840375,40.5527813 39.8436562,43.3911563 L39.8436562,43.4999063 L23.3436562,43.4999063 L23.3436562,43.4999063 Z" id="Shape"></path></g></g></g></svg> 